<svg version="1.1" viewBox="0.0 0.0 590.0 64.0" fill="none" stroke="none" stroke-linecap="square" stroke-miterlimit="10" xmlns:xlink="http://www.w3.org/1999/xlink" xmlns="http://www.w3.org/2000/svg"><clipPath id="p.0"><path d="m0 0l590.0 0l0 64.0l-590.0 0l0 -64.0z" clip-rule="nonzero"/></clipPath><g clip-path="url(#p.0)"><path fill="#000000" fill-opacity="0.0" d="m0 0l590.0 0l0 64.0l-590.0 0z" fill-rule="evenodd"/><path fill="#000000" fill-opacity="0.0" d="m-2.4593177 -13.228347l595.90546 0l0 64.0l-595.90546 0z" fill-rule="evenodd"/><path fill="#1c3ed3" d="m21.493807 4.8991523q12.609377 0 18.750002 5.7343745q6.140625 5.718751 6.140625 16.40625q0 6.984373 -3.015625 12.203123q-3.0 5.203125 -8.734375 8.09375q-5.718752 2.875 -13.718752 2.875q-1.53125 0 -4.390625 -0.09375q-2.843749 -0.09375 -4.953124 -0.09375q-2.8125 0 -5.5312505 0.03125q-2.71875 0.03125 -4.328125 0.15625l0 -1.28125q2.046875 -0.125 3.0625 -0.5q1.03125 -0.390625 1.375 -1.546875q0.359375 -1.15625 0.359375 -3.453125l0 -31.75q0 -2.359375 -0.359375 -3.484375q-0.34375 -1.1249995 -1.40625 -1.5312495q-1.046875 -0.421875 -3.03125 -0.484375l0 -1.28125q1.6093749 0.0625 4.328125 0.15625q2.7187505 0.09375 5.4062505 0.03125q2.296875 -0.0625 5.203124 -0.125q2.921875 -0.0625 4.84375 -0.0625zm-0.0625 1.15625q-2.953125 0 -3.84375 1.09375q-0.890625 1.0781245 -0.890625 4.4062495l0 32.0q0 3.328125 0.921875 4.421875q0.9375 1.078125 3.875 1.078125q5.375 0 8.46875 -2.515625q3.109377 -2.53125 4.453127 -7.390625q1.34375 -4.875 1.34375 -11.843748q0 -10.75 -3.328125 -16.0q-3.328127 -5.2499995 -11.000002 -5.2499995zm61.179535 10.359375l0 26.828123q0 2.875 0.890625 4.25q0.90625 1.375 3.203125 1.375l0 1.34375q-1.984375 -0.1875 -3.96875 -0.1875q-2.6875 0 -5.0 0.1875q-2.296875 0.1875 -4.34375 0.7031288l0 -5.765629q-1.53125 3.203125 -4.25 4.578125q-2.71875 1.3750038 -6.046871 1.3750038q-2.6875 0 -4.359375 -0.7031288q-1.65625 -0.703125 -2.625 -1.78125q-1.078125 -1.21875 -1.53125 -3.203125q-0.453125 -1.984375 -0.453125 -5.125l0 -16.187498q0 -2.875 -0.859375 -4.25q-0.859375 -1.390625 -3.234375 -1.390625l0 -1.34375q2.046875 0.203125 3.96875 0.203125q2.6875 0 5.015625 -0.21875q2.34375 -0.234375 4.328125 -0.6875l0 26.499998q0 1.59375 0.28125 2.8125q0.296875 1.21875 1.1249962 1.890625q0.84375 0.671875 2.4375 0.671875q2.5625 0 4.375 -2.140625q1.828125 -2.140625 1.828125 -5.28125l0 -16.765623q0 -2.875 -0.859375 -4.25q-0.859375 -1.390625 -3.234375 -1.390625l0 -1.34375q2.046875 0.203125 3.96875 0.203125q2.6875 0 5.015625 -0.21875q2.34375 -0.234375 4.328125 -0.6875zm30.721436 -0.1875q2.6875 0 4.375 0.671875q1.703125 0.671875 2.671875 1.828125q1.015625 1.21875 1.5 3.140625q0.484375 1.90625 0.484375 5.171875l0 17.218748q0 2.6875 0.921875 3.65625q0.921875 0.953125 3.171875 0.953125l0 1.34375q-1.21875 -0.0625 -3.65625 -0.15625q-2.421875 -0.09375 -4.796875 -0.09375q-2.4375 0 -4.78125 0.09375q-2.328125 0.09375 -3.53125 0.15625l0 -1.34375q1.90625 0 2.671875 -0.953125q0.78125 -0.96875 0.78125 -3.65625l0 -19.906248q0 -1.59375 -0.328125 -2.78125q-0.3125 -1.1875 -1.15625 -1.859375q-0.828125 -0.671875 -2.484375 -0.671875q-2.6875 0 -4.515625 2.125q-1.828125 2.109375 -1.828125 5.296875l0 17.796873q0 2.6875 0.796875 3.65625q0.8125 0.953125 2.65625 0.953125l0 1.34375q-1.140625 -0.0625 -3.359375 -0.15625q-2.203125 -0.09375 -4.5625 -0.09375q-2.4375 0 -5.0 0.09375q-2.5625 0.09375 -3.84375 0.15625l0 -1.34375q2.25 0 3.171875 -0.953125q0.921875 -0.96875 0.921875 -3.65625l0 -20.156248q0 -2.875 -0.859375 -4.25q-0.859375 -1.390625 -3.234375 -1.390625l0 -1.34375q2.046875 0.203125 3.96875 0.203125q2.6875 0 5.015625 -0.21875q2.34375 -0.234375 4.328125 -0.6875l0 5.765625q1.609375 -3.265625 4.359375 -4.609375q2.75 -1.34375 6.140625 -1.34375zm23.936554 34.4375q-4.28125 0 -6.203125 -2.234375q-1.921875 -2.25 -1.921875 -5.453125q0 -2.75 1.25 -4.46875q1.25 -1.734375 3.21875 -2.859375q1.984375 -1.125 4.1875 -1.859375q2.21875 -0.734375 4.234375 -1.46875q2.015625 -0.7343731 3.265625 -1.6874981q1.25 -0.96875 1.25 -2.4375l0 -5.0q0 -1.65625 -0.546875 -2.96875q-0.546875 -1.3125 -1.671875 -2.015625q-1.109375 -0.703125 -2.90625 -0.703125q-1.28125 0 -2.5625 0.359375q-1.28125 0.34375 -2.109375 1.171875q1.796875 0.640625 2.78125 1.953125q1.0 1.3125 1.0 2.984375q0 2.171875 -1.515625 3.453125q-1.5 1.28125 -3.546875 1.28125q-2.296875 0 -3.484375 -1.4375q-1.1875 -1.453125 -1.1875 -3.5q0 -1.84375 0.921875 -3.0625q0.9375 -1.21875 2.609375 -2.3125q1.78125 -1.015625 4.3125 -1.59375q2.53125 -0.578125 5.46875 -0.578125q2.953125 0 5.3125 0.609375q2.375 0.609375 3.96875 2.203125q1.46875 1.46875 1.921875 3.625q0.453125 2.140625 0.453125 5.40625l0 17.406248q0 1.53125 0.3125 2.171875q0.328125 0.640625 1.09375 0.640625q0.640625 0 1.21875 -0.3125q0.578125 -0.328125 1.078125 -0.78125l0.640625 1.09375q-1.34375 1.15625 -3.109375 1.765625q-1.75 0.609375 -3.921875 0.609375q-3.84375 0 -5.09375 -1.5625q-1.25 -1.578125 -1.3125 -3.625q-1.59375 2.625 -3.9375 3.90625q-2.328125 1.28125 -5.46875 1.28125zm4.921875 -4.09375q1.21875 0 2.265625 -0.578125q1.0625 -0.578125 2.09375 -2.046875l0 -13.124998q-0.765625 1.2812481 -2.140625 2.140623q-1.375 0.859375 -2.828125 1.859375q-1.4375 0.984375 -2.40625 2.53125q-0.953125 1.53125 -0.953125 4.09375q0 2.75 1.15625 3.9375q1.15625 1.1875 2.8125 1.1875zm43.011322 -30.343748q2.6875 0 4.34375 0.671875q1.671875 0.671875 2.703125 1.828125q1.015625 1.21875 1.46875 3.171875q0.453125 1.9375 0.453125 5.140625l0 17.218748q0 2.6875 0.828125 3.65625q0.828125 0.953125 2.875 0.953125l0 1.34375q-1.15625 -0.0625 -3.5 -0.15625q-2.328125 -0.09375 -4.5625 -0.09375q-2.296875 0 -4.546875 0.09375q-2.234375 0.09375 -3.390625 0.15625l0 -1.34375q1.734375 0 2.40625 -0.953125q0.671875 -0.96875 0.671875 -3.65625l0 -19.906248q0 -1.59375 -0.265625 -2.78125q-0.25 -1.1875 -0.984375 -1.859375q-0.734375 -0.671875 -2.203125 -0.671875q-1.671875 0 -3.078125 0.96875q-1.40625 0.953125 -2.28125 2.65625q-0.859375 1.6875 -0.859375 3.796875l0 17.796873q0 2.6875 0.703125 3.65625q0.703125 0.953125 2.375 0.953125l0 1.34375q-1.03125 -0.0625 -3.171875 -0.15625q-2.140625 -0.09375 -4.375 -0.09375q-2.4375 0 -5.0 0.09375q-2.5625 0.09375 -3.84375 0.15625l0 -1.34375q2.25 0 3.171875 -0.953125q0.921875 -0.96875 0.921875 -3.65625l0 -20.156248q0 -2.875 -0.859375 -4.25q-0.859375 -1.390625 -3.234375 -1.390625l0 -1.34375q2.046875 0.203125 3.96875 0.203125q2.6875 0 5.015625 -0.21875q2.34375 -0.234375 4.328125 -0.6875l0 5.765625q1.546875 -3.203125 4.15625 -4.578125q2.625 -1.375 5.765625 -1.375zm19.265625 0q2.6875 0 4.34375 0.671875q1.671875 0.671875 2.703125 1.828125q1.015625 1.21875 1.453125 3.171875q0.453125 1.9375 0.453125 5.140625l0 17.218748q0 2.6875 0.921875 3.65625q0.9375 0.953125 3.1875 0.953125l0 1.34375q-1.21875 -0.0625 -3.65625 -0.15625q-2.421875 -0.09375 -4.796875 -0.09375q-2.3125 0 -4.546875 0.09375q-2.234375 0.09375 -3.390625 0.15625l0 -1.34375q1.734375 0 2.40625 -0.953125q0.671875 -0.96875 0.671875 -3.65625l0 -19.906248q0 -1.59375 -0.296875 -2.78125q-0.28125 -1.1875 -1.09375 -1.859375q-0.796875 -0.671875 -2.453125 -0.671875q-2.5 0 -4.359375 2.21875q-1.84375 2.203125 -1.921875 5.40625l-0.3125 -3.90625q1.734375 -3.84375 4.578125 -5.1875q2.84375 -1.34375 6.109375 -1.34375zm24.232407 -15.609376q2.6875 0 4.25 1.3125q1.5625 1.3125001 1.5625 3.609375q0 2.296875 -1.5625 3.6093745q-1.5625 1.3125 -4.25 1.3125q-2.703125 0 -4.265625 -1.3125q-1.5625 -1.3124995 -1.5625 -3.6093745q0 -2.296875 1.5625 -3.609375q1.5625 -1.3125 4.265625 -1.3125zm4.5 15.796876l0 27.843748q0 2.6875 0.921875 3.65625q0.9375 0.953125 3.171875 0.953125l0 1.34375q-1.140625 -0.0625 -3.578125 -0.15625q-2.4375 -0.09375 -4.921875 -0.09375q-2.5 0 -5.0625 0.09375q-2.5625 0.09375 -3.84375 0.15625l0 -1.34375q2.25 0 3.171875 -0.953125q0.921875 -0.96875 0.921875 -3.65625l0 -20.156248q0 -2.875 -0.859375 -4.25q-0.859375 -1.390625 -3.234375 -1.390625l0 -1.34375q2.046875 0.203125 3.96875 0.203125q2.6875 0 5.015625 -0.21875q2.34375 -0.234375 4.328125 -0.6875zm19.519348 -0.1875q2.6874847 0 4.7031097 0.671875q2.015625 0.671875 2.921875 1.3125q2.171875 1.46875 2.6875 -1.921875l1.34375 0q-0.125 1.796875 -0.203125 4.390625q-0.0625 2.59375 -0.0625 6.875l-1.34375 0q-0.3125 -2.375 -1.21875 -4.671875q-0.890625 -2.296875 -2.59375 -3.765625q-1.6875 -1.484375 -4.375 -1.484375q-1.8593597 0 -3.1406097 1.0625q-1.28125 1.046875 -1.28125 3.03125q0 1.921875 1.15625 3.359375q1.15625 1.4375 2.9687347 2.75q1.828125 1.3125 3.8125 2.796875q3.203125 2.359373 5.40625 4.765623q2.21875 2.390625 2.21875 6.234375q0 2.875 -1.671875 5.03125q-1.65625 2.140625 -4.375 3.296875q-2.71875 1.1406288 -6.046875 1.1406288q-1.9218597 0 -3.4374847 -0.3906288q-1.5 -0.375 -2.578125 -0.953125q-0.84375 -0.375 -1.578125 -0.71875q-0.734375 -0.359375 -1.375 -0.625q-0.640625 -0.1875 -1.125 0.453125q-0.46875 0.640625 -0.734375 1.796875l-1.34375 0q0.140625 -2.046875 0.203125 -4.984375q0.0625 -2.953125 0.0625 -7.828125l1.34375 0q0.375 3.46875 1.390625 6.125q1.03125 2.65625 2.796875 4.15625q1.765625 1.5 4.453125 1.5q1.65625 0 3.0624847 -1.046875q1.40625 -1.0625 1.40625 -3.5q0 -2.8125 -1.828125 -4.65625q-1.8124847 -1.859375 -4.6249847 -4.046875q-2.046875 -1.65625 -3.875 -3.28125q-1.828125 -1.6406231 -2.984375 -3.593748q-1.140625 -1.953125 -1.140625 -4.453125q0 -2.875 1.53125 -4.859375q1.53125 -1.984375 4.0625 -2.96875q2.53125 -1.0 5.40625 -1.0z" fill-rule="nonzero"/><path fill="#2f2f41" d="m306.54306 4.7741523l15.5625 40.0625q0.890625 2.296875 2.0 3.171875q1.125 0.859375 2.03125 0.921875l0 1.28125q-1.921875 -0.125 -4.515625 -0.15625q-2.59375 -0.03125 -5.21875 -0.03125q-2.9375 0 -5.5625 0.03125q-2.625 0.03125 -4.15625 0.15625l0 -1.28125q3.25 -0.125 4.109375 -1.109375q0.875 -1.0 -0.40625 -4.265625l-10.875 -29.765625l1.140625 -1.65625l-9.71875 25.34375q-1.796875 4.734375 -1.765625 7.171875q0.03125 2.421875 1.5625 3.296875q1.546875 0.859375 4.109375 0.984375l0 1.28125q-2.109375 -0.125 -4.03125 -0.15625q-1.921875 -0.03125 -3.90625 -0.03125q-1.40625 0 -2.65625 0.03125q-1.25 0.03125 -2.203125 0.15625l0 -1.28125q1.34375 -0.25 2.75 -1.71875q1.40625 -1.484375 2.75 -5.0l14.59375 -37.4375q1.015625 0.0625 2.203125 0.0625q1.1875 0 2.203125 -0.0625zm4.484375 27.0l0 1.2812481l-19.078125 0l0.640625 -1.2812481l18.4375 0zm32.703552 -15.546875q5.640625 0 8.828125 3.328125q3.203125 3.328125 3.203125 10.875l-21.046875 0l-0.140625 -1.203125l13.125 0q0.0625 -3.140625 -0.390625 -5.796875q-0.4375 -2.65625 -1.40625 -4.25q-0.953125 -1.609375 -2.5625 -1.609375q-2.234375 0 -3.8125 2.8125q-1.5625 2.8125 -1.875 9.34375l0.1875 0.390625q-0.0625 0.765625 -0.09375 1.609375q-0.03125 0.8281231 -0.03125 1.7187481q0 4.40625 1.25 7.171875q1.25 2.75 3.171875 4.0q1.921875 1.234375 3.90625 1.234375q1.90625 0 4.171875 -0.953125q2.28125 -0.953125 4.265625 -4.15625l1.15625 0.375q-0.765625 2.4375 -2.4375 4.75q-1.65625 2.296875 -4.21875 3.765625q-2.5625 1.4687538 -6.140625 1.4687538q-4.359375 0 -7.6875 -1.8437538q-3.328125 -1.859375 -5.21875 -5.640625q-1.875 -3.78125 -1.875 -9.59375q0 -5.953123 2.015625 -9.921873q2.015625 -3.96875 5.5625 -5.921875q3.546875 -1.953125 8.09375 -1.953125zm37.37195 0q2.046875 0 3.328125 0.875q1.28125 0.859375 1.890625 2.203125q0.609375 1.34375 0.609375 2.8125q0 2.359375 -1.375 3.875q-1.375 1.5 -3.609375 1.5q-2.25 0 -3.5 -1.109375q-1.25 -1.125 -1.25 -2.984375q0 -1.796875 0.796875 -2.96875q0.8125 -1.1875 2.03125 -2.03125q-0.90625 -0.25 -1.796875 0.0625q-1.65625 0.265625 -2.96875 1.578125q-1.3125 1.3125 -2.09375 3.109375q-0.765625 1.78125 -0.765625 3.515625l0 16.953123q0 3.078125 1.5 4.171875q1.515625 1.078125 4.515625 1.078125l0 1.34375q-1.46875 -0.0625 -4.28125 -0.15625q-2.8125 -0.09375 -5.890625 -0.09375q-2.5625 0 -5.1875 0.09375q-2.625 0.09375 -3.96875 0.15625l0 -1.34375q2.25 0 3.171875 -0.953125q0.921875 -0.96875 0.921875 -3.65625l0 -20.156248q0 -2.875 -0.859375 -4.25q-0.859375 -1.390625 -3.234375 -1.390625l0 -1.34375q2.046875 0.203125 3.96875 0.203125q2.6875 0 5.015625 -0.21875q2.34375 -0.234375 4.328125 -0.6875l0 5.953125q0.765625 -1.71875 2.046875 -3.125q1.28125 -1.421875 2.9375 -2.21875q1.671875 -0.796875 3.71875 -0.796875zm23.491943 0q4.671875 0 8.1875 1.734375q3.53125 1.71875 5.515625 5.5625q1.984375 3.84375 1.984375 10.171873q0 6.34375 -1.984375 10.15625q-1.984375 3.796875 -5.515625 5.53125q-3.515625 1.7187538 -8.1875 1.7187538q-4.546875 0 -8.09375 -1.7187538q-3.546875 -1.734375 -5.5625 -5.53125q-2.015625 -3.8125 -2.015625 -10.15625q0 -6.328123 2.015625 -10.171873q2.015625 -3.84375 5.5625 -5.5625q3.546875 -1.734375 8.09375 -1.734375zm0 1.28125q-2.5625 0 -4.296875 3.8125q-1.71875 3.796875 -1.71875 12.374998q0 8.578125 1.71875 12.359375q1.734375 3.765625 4.296875 3.765625q2.625 0 4.3125 -3.765625q1.703125 -3.78125 1.703125 -12.359375q0 -8.578123 -1.703125 -12.374998q-1.6875 -3.8125 -4.3125 -3.8125zm32.316223 -1.28125q2.6875 0 4.703125 0.671875q2.015625 0.671875 2.921875 1.3125q2.171875 1.46875 2.6875 -1.921875l1.34375 0q-0.125 1.796875 -0.203125 4.390625q-0.0625 2.59375 -0.0625 6.875l-1.34375 0q-0.3125 -2.375 -1.21875 -4.671875q-0.890625 -2.296875 -2.59375 -3.765625q-1.6875 -1.484375 -4.375 -1.484375q-1.859375 0 -3.140625 1.0625q-1.28125 1.046875 -1.28125 3.03125q0 1.921875 1.15625 3.359375q1.15625 1.4375 2.96875 2.75q1.828125 1.3125 3.8125 2.796875q3.203125 2.359373 5.40625 4.765623q2.21875 2.390625 2.21875 6.234375q0 2.875 -1.671875 5.03125q-1.65625 2.140625 -4.375 3.296875q-2.71875 1.1406288 -6.046875 1.1406288q-1.921875 0 -3.4375 -0.3906288q-1.5 -0.375 -2.578125 -0.953125q-0.84375 -0.375 -1.578125 -0.71875q-0.734375 -0.359375 -1.375 -0.625q-0.640625 -0.1875 -1.125 0.453125q-0.46875 0.640625 -0.734375 1.796875l-1.34375 0q0.140625 -2.046875 0.203125 -4.984375q0.0625 -2.953125 0.0625 -7.828125l1.34375 0q0.375 3.46875 1.390625 6.125q1.03125 2.65625 2.796875 4.15625q1.765625 1.5 4.453125 1.5q1.65625 0 3.0625 -1.046875q1.40625 -1.0625 1.40625 -3.5q0 -2.8125 -1.828125 -4.65625q-1.8125 -1.859375 -4.625 -4.046875q-2.046875 -1.65625 -3.875 -3.28125q-1.828125 -1.6406231 -2.984375 -3.593748q-1.140625 -1.953125 -1.140625 -4.453125q0 -2.875 1.53125 -4.859375q1.53125 -1.984375 4.0625 -2.96875q2.53125 -1.0 5.40625 -1.0zm29.958557 0.1875l0 39.046875q0 3.0 1.53125 3.984375q1.53125 1.0 4.234375 1.0l0 1.34375q-1.671875 -0.0625 -4.59375 -0.15625q-2.90625 -0.09375 -6.171875 -0.09375q-2.359375 0 -4.640625 0.09375q-2.265625 0.09375 -3.421875 0.15625l0 -1.34375q2.109375 0 2.96875 -0.890625q0.875 -0.890625 0.875 -3.453125l0 -32.0q0 -2.875 -0.90625 -4.25q-0.890625 -1.390625 -3.1875 -1.390625l0 -1.34375q2.046875 0.203125 3.96875 0.203125q2.625 0 4.984375 -0.21875q2.375 -0.234375 4.359375 -0.6875zm9.921875 -0.1875q4.859375 0 8.15625 3.96875q3.296875 3.96875 3.296875 11.968748q0 6.203125 -1.859375 10.4375q-1.859375 4.21875 -5.15625 6.359375q-3.296875 2.1406288 -7.828125 2.1406288q-2.5 0 -4.546875 -0.8593788q-2.046875 -0.859375 -3.140625 -2.46875l0.640625 -0.828125q0.640625 1.15625 1.828125 1.796875q1.1875 0.640625 2.71875 0.640625q2.875 0 4.53125 -1.953125q1.671875 -1.953125 2.40625 -5.5q0.734375 -3.5625 0.734375 -8.484375q0 -5.499998 -0.703125 -8.640623q-0.703125 -3.140625 -1.921875 -4.484375q-1.203125 -1.34375 -2.9375 -1.34375q-2.296875 0 -4.1875 1.796875q-1.890625 1.796875 -2.140625 5.125l-0.328125 -2.25q1.15625 -3.640625 3.9375 -5.53125q2.78125 -1.890625 6.5 -1.890625zm23.868683 34.4375q-4.28125 0 -6.203125 -2.234375q-1.921875 -2.25 -1.921875 -5.453125q0 -2.75 1.25 -4.46875q1.25 -1.734375 3.21875 -2.859375q1.984375 -1.125 4.1875 -1.859375q2.21875 -0.734375 4.234375 -1.46875q2.015625 -0.7343731 3.265625 -1.6874981q1.2499695 -0.96875 1.2499695 -2.4375l0 -5.0q0 -1.65625 -0.5468445 -2.96875q-0.546875 -1.3125 -1.671875 -2.015625q-1.109375 -0.703125 -2.90625 -0.703125q-1.28125 0 -2.5625 0.359375q-1.28125 0.34375 -2.109375 1.171875q1.796875 0.640625 2.78125 1.953125q1.0 1.3125 1.0 2.984375q0 2.171875 -1.515625 3.453125q-1.5 1.28125 -3.546875 1.28125q-2.296875 0 -3.484375 -1.4375q-1.1875 -1.453125 -1.1875 -3.5q0 -1.84375 0.921875 -3.0625q0.9375 -1.21875 2.609375 -2.3125q1.78125 -1.015625 4.3125 -1.59375q2.53125 -0.578125 5.46875 -0.578125q2.9530945 0 5.3125 0.609375q2.375 0.609375 3.96875 2.203125q1.46875 1.46875 1.921875 3.625q0.453125 2.140625 0.453125 5.40625l0 17.406248q0 1.53125 0.3125 2.171875q0.328125 0.640625 1.09375 0.640625q0.640625 0 1.21875 -0.3125q0.578125 -0.328125 1.078125 -0.78125l0.640625 1.09375q-1.34375 1.15625 -3.109375 1.765625q-1.75 0.609375 -3.921875 0.609375q-3.84375 0 -5.0937805 -1.5625q-1.25 -1.578125 -1.3125 -3.625q-1.5937195 2.625 -3.9374695 3.90625q-2.328125 1.28125 -5.46875 1.28125zm4.921875 -4.09375q1.21875 0 2.265625 -0.578125q1.0625 -0.578125 2.0937195 -2.046875l0 -13.124998q-0.7655945 1.2812481 -2.1405945 2.140623q-1.375 0.859375 -2.828125 1.859375q-1.4375 0.984375 -2.40625 2.53125q-0.953125 1.53125 -0.953125 4.09375q0 2.75 1.15625 3.9375q1.15625 1.1875 2.8125 1.1875zm36.417603 -30.343748q2.5 0 4.578125 0.546875q2.078125 0.546875 3.421875 1.375q1.671875 1.015625 2.59375 2.53125q0.9375 1.5 0.9375 3.484375q0 2.234375 -1.421875 3.6875q-1.40625 1.4375 -3.640625 1.4375q-2.234375 0 -3.578125 -1.28125q-1.34375 -1.28125 -1.34375 -3.453125q0 -2.0625 1.265625 -3.4375q1.28125 -1.375 2.953125 -1.8125q-0.515625 -0.640625 -1.546875 -1.09375q-1.015625 -0.453125 -2.296875 -0.453125q-1.984375 0 -3.484375 1.15625q-1.5 1.15625 -2.53125 3.203125q-1.015625 2.046875 -1.5625 4.796875q-0.546875 2.75 -0.546875 6.015623q0 4.921875 1.25 7.75q1.25 2.8125 3.203125 3.96875q1.953125 1.140625 4.0625 1.140625q1.78125 0 4.078125 -0.984375q2.3125 -1.0 4.296875 -4.1875l1.09375 0.375q-0.703125 2.375 -2.3125 4.75q-1.59375 2.359375 -4.15625 3.859375q-2.5625 1.5000038 -6.265625 1.5000038q-4.15625 0 -7.515625 -1.8125038q-3.359375 -1.828125 -5.390625 -5.640625q-2.015625 -3.8125 -2.015625 -9.828125q0 -5.749998 2.078125 -9.687498q2.09375 -3.9375 5.671875 -5.921875q3.578125 -1.984375 8.125 -1.984375zm31.618958 0q5.640625 0 8.828125 3.328125q3.203125 3.328125 3.203125 10.875l-21.046875 0l-0.140625 -1.203125l13.125 0q0.0625 -3.140625 -0.390625 -5.796875q-0.4375 -2.65625 -1.40625 -4.25q-0.953125 -1.609375 -2.5625 -1.609375q-2.234375 0 -3.8125 2.8125q-1.5625 2.8125 -1.875 9.34375l0.1875 0.390625q-0.0625 0.765625 -0.09375 1.609375q-0.03125 0.8281231 -0.03125 1.7187481q0 4.40625 1.25 7.171875q1.25 2.75 3.171875 4.0q1.921875 1.234375 3.90625 1.234375q1.90625 0 4.171875 -0.953125q2.28125 -0.953125 4.265625 -4.15625l1.15625 0.375q-0.765625 2.4375 -2.4375 4.75q-1.65625 2.296875 -4.21875 3.765625q-2.5625 1.4687538 -6.140625 1.4687538q-4.359375 0 -7.6875 -1.8437538q-3.328125 -1.859375 -5.21875 -5.640625q-1.875 -3.78125 -1.875 -9.59375q0 -5.953123 2.015625 -9.921873q2.015625 -3.96875 5.5625 -5.921875q3.546875 -1.953125 8.09375 -1.953125z" fill-rule="nonzero"/></g></svg>