<svg version="1.1" viewBox="0.0 0.0 42.666666666666664 42.666666666666664" fill="none" stroke="none" stroke-linecap="square" stroke-miterlimit="10" xmlns:xlink="http://www.w3.org/1999/xlink" xmlns="http://www.w3.org/2000/svg"><clipPath id="p.0"><path d="m0 0l42.666668 0l0 42.666668l-42.666668 0l0 -42.666668z" clip-rule="nonzero"/></clipPath><g clip-path="url(#p.0)"><path fill="#1c3ed3" d="m0 0l42.666668 0l0 42.666668l-42.666668 0z" fill-rule="evenodd"/><path fill="#000000" fill-opacity="0.0" d="m-3.8466215 -13.435485l42.677166 0l0 38.96063l-42.677166 0z" fill-rule="evenodd"/><path fill="#ffffff" d="m10.1846285 8.024514l-3.203125 -0.5468745l0 -2.640625l6.234375 0q1.40625 0 3.796874 -0.171875q0.546875 -0.046875 1.671875 -0.078125q1.140625 -0.046875 2.03125 -0.046875q7.859375 0 11.75 3.9218745q3.90625 3.921875 3.90625 11.125001q0 5.03125 -1.9375 8.96875q-1.9375 3.921873 -5.53125 6.124998q-3.578125 2.1875 -8.34375 2.1875q-1.25 0 -3.890625 -0.171875q-2.468749 -0.171875 -3.374999 -0.171875l-6.484375 0l0 -2.5625l3.375 -0.421875l0 -25.515625zm6.187499 25.640625q1.453125 0.390625 4.046875 0.390625q4.265625 -0.09375 6.703125 -3.437498q2.4375 -3.34375 2.4375 -10.046875q0 -6.359376 -2.390625 -9.828126q-2.390625 -3.4843745 -7.421875 -3.4843745q-1.078125 0 -2.03125 0.140625q-0.953125 0.125 -1.34375 0.15625l0 26.109373z" fill-rule="nonzero"/></g></svg>